<svg xmlns="http://www.w3.org/2000/svg" width="1280" height="360" viewBox="0 0 1280 360" role="img" aria-labelledby="title desc">
  <title id="title">Chatwoot Kanban</title>
  <desc id="desc">Conversas, negociações e próximos passos. Ilustração de um funil com três colunas.</desc>
  <defs>
    <linearGradient id="bg" x2="1" y2="1"><stop stop-color="#101b32"/><stop offset="1" stop-color="#0b1020"/></linearGradient>
    <linearGradient id="accent"><stop stop-color="#60a5fa"/><stop offset="1" stop-color="#2dd4bf"/></linearGradient>
  </defs>
  <rect width="1280" height="360" rx="20" fill="url(#bg)"/>
  <path d="M0 320H1280M0 280H1280M0 240H1280" stroke="#ffffff" stroke-opacity=".025"/>
  <rect x="54" y="48" width="5" height="28" rx="2" fill="#60a5fa"/>
  <text x="74" y="69" font-family="Arial,sans-serif" font-size="16" font-weight="700" letter-spacing="3" fill="#9aabc5">PIPELINE · DENTRO DO CHATWOOT</text>
  <text x="54" y="150" font-family="Arial,sans-serif" font-size="59" font-weight="700" fill="#f4f7fc">Chatwoot Kanban</text>
  <text x="57" y="201" font-family="Arial,sans-serif" font-size="24" fill="#b4c3da">Conversas, negociações e próximos passos.</text>
  <text x="57" y="235" font-family="Arial,sans-serif" font-size="24" fill="#b4c3da">Tudo no mesmo lugar.</text>
  <rect x="56" y="279" width="320" height="3" rx="1.5" fill="url(#accent)"/>
  <g transform="translate(785 63)">
    <rect width="125" height="234" rx="12" fill="#17243b" stroke="#2a3a55"/>
    <rect x="140" width="125" height="234" rx="12" fill="#17243b" stroke="#2a3a55"/>
    <rect x="280" width="125" height="234" rx="12" fill="#17243b" stroke="#2a3a55"/>
    <g font-family="Arial,sans-serif" font-size="12" font-weight="700" letter-spacing="1">
      <text x="15" y="28" fill="#93baff">NOVO</text><text x="155" y="28" fill="#c4b5fd">PROPOSTA</text><text x="295" y="28" fill="#5eead4">GANHO</text>
    </g>
    <g fill="#243650"><rect x="12" y="46" width="101" height="70" rx="8"/><rect x="12" y="127" width="101" height="70" rx="8"/><rect x="152" y="46" width="101" height="92" rx="8"/></g>
    <rect x="292" y="46" width="101" height="70" rx="8" fill="#173d3f"/>
    <g stroke="#7291b5" stroke-width="5" stroke-linecap="round"><path d="M25 65h54M25 78h35M25 147h54M25 160h35M165 65h54M165 78h35"/></g>
    <rect x="24" y="94" width="38" height="9" rx="4" fill="#4f83d1"/>
    <rect x="164" y="112" width="51" height="9" rx="4" fill="#8b7cdb"/>
    <path d="m327 80 10 10 19-22" fill="none" stroke="#5eead4" stroke-width="5" stroke-linecap="round" stroke-linejoin="round"/>
  </g>
</svg>
